<svg xmlns="http://www.w3.org/2000/svg" version="1.1" xmlns:xlink="http://www.w3.org/1999/xlink" width="1000" height="1000"><metadata><rdf:RDF xmlns:rdf="http://www.w3.org/1999/02/22-rdf-syntax-ns#" xmlns:dc="http://purl.org/dc/elements/1.1/"><rdf:Description><dc:creator>RealFaviconGenerator</dc:creator><dc:source>https://realfavicongenerator.net</dc:source></rdf:Description></rdf:RDF></metadata><g clip-path="url(#SvgjsClipPath1031)"><rect width="1000" height="1000" fill="#020202"></rect><g transform="matrix(28.571428571428573,0,0,28.571428571428573,200,214.28571428571428)"><svg xmlns="http://www.w3.org/2000/svg" width="21" height="20" viewBox="0 0 21 20" fill="none"><path fill-rule="evenodd" clip-rule="evenodd" d="M19.062 16.73c4.36-4.361-1.323-7.896-7.896-7.896-6.69 0-3.535-12.257-7.895-7.896-4.361 4.36-4.361 11.43 0 15.792 4.36 4.36 11.43 4.36 15.79 0M16.047 3.953c2.537 2.537 2.409 6.779-.287 9.475s-6.938 2.824-9.475.287-2.408-6.78.287-9.475c2.696-2.696 6.938-2.824 9.475-.287" fill="#E0E0E0"></path></svg></g></g><defs><clipPath id="SvgjsClipPath1031"><rect width="1000" height="1000" x="0" y="0" rx="350" ry="350"></rect></clipPath></defs></svg>