<svg xmlns="http://www.w3.org/2000/svg" version="1.1" xmlns:xlink="http://www.w3.org/1999/xlink" width="1000" height="1000"><metadata><rdf:RDF xmlns:rdf="http://www.w3.org/1999/02/22-rdf-syntax-ns#" xmlns:dc="http://purl.org/dc/elements/1.1/"><rdf:Description><dc:creator>RealFaviconGenerator</dc:creator><dc:source>https://realfavicongenerator.net</dc:source></rdf:Description></rdf:RDF></metadata><g clip-path="url(#SvgjsClipPath1024)"><rect width="1000" height="1000" fill="#020202"></rect><g transform="matrix(29.166666666666668,0,0,29.166666666666668,150,150)"><svg xmlns="http://www.w3.org/2000/svg" width="24" height="24" viewBox="0 0 24 24" fill="none"><path d="M10.6646 7.0137C7.49249 7.86058 4.83888 9.25971 3.10729 10.7924C1.32744 12.3677 0.744094 13.859 1.0378 14.9592C1.33155 16.0593 2.58048 17.0611 4.90867 17.5397C7.17375 18.0054 10.1717 17.896 13.3438 17.0492C16.5159 16.2023 19.1696 14.8028 20.9012 13.2701C22.6811 11.6948 23.2645 10.2038 22.9708 9.10362L23.9017 8.8551L23.9387 9.00948C24.6341 12.2674 20.0604 16.2532 13.5923 17.9801C7.02165 19.7342 0.984089 18.493 0.10692 15.2077C-0.770182 11.9223 3.84537 7.83705 10.416 6.08282C16.9868 4.3286 23.0246 5.56973 23.9017 8.8551L22.9708 9.10362C22.6771 8.00348 21.4281 7.0014 19.0999 6.52275C16.8348 6.05711 13.8367 6.16682 10.6646 7.0137Z" fill="#E0E0E0"></path><path d="M15.6714 8.34017C13.3499 6.01863 10.8099 4.42242 8.61616 3.69113C6.36121 2.93948 4.77827 3.18137 3.97311 3.98654C3.16799 4.79171 2.9263 6.37446 3.67793 8.62936C4.4092 10.8231 6.00518 13.3633 8.32674 15.6849C10.6484 18.0065 13.1886 19.6026 15.3825 20.3339C17.6374 21.0855 19.2201 20.8438 20.0253 20.0387L20.7066 20.72L20.5915 20.8293C18.1198 23.0628 12.3793 21.1 7.64545 16.3661C2.83662 11.5573 0.887446 5.70974 3.29182 3.30525C5.69628 0.900792 11.5438 2.85001 16.3527 7.65888C21.1617 12.4678 23.111 18.3155 20.7066 20.72L20.0253 20.0387C20.8304 19.2335 21.0723 17.6506 20.3207 15.3957C19.5894 13.2019 17.993 10.6618 15.6714 8.34017Z" fill="#E0E0E0"></path><path d="M17.0745 13.3486C17.9271 10.178 18.0422 7.18039 17.5807 4.91447C17.1063 2.58537 16.1065 1.33454 15.0069 1.03883C13.9073 0.743166 12.4152 1.32387 10.8366 3.10082C9.30078 4.82961 7.89654 7.48055 7.04388 10.6511C6.19122 13.8217 6.07634 16.8196 6.53788 19.0856C7.01228 21.4146 8.01182 22.6654 9.1114 22.9612L8.86118 23.8916L8.70899 23.8464C5.53982 22.8197 4.37485 16.8659 6.11345 10.4009C7.87964 3.83347 11.9733 -0.774592 15.2571 0.108404C18.5408 0.991486 19.771 7.03131 18.0049 13.5988C16.2387 20.1663 12.145 24.7747 8.86118 23.8916L9.1114 22.9612C10.211 23.2569 11.7033 22.6762 13.282 20.8993C14.8178 19.1704 16.2218 16.5192 17.0745 13.3486Z" fill="#E0E0E0"></path></svg></g></g><defs><clipPath id="SvgjsClipPath1024"><rect width="1000" height="1000" x="0" y="0" rx="350" ry="350"></rect></clipPath></defs></svg>